<svg width="48" height="48" viewBox="0 0 48 48" fill="none" xmlns="http://www.w3.org/2000/svg">
<rect width="48" height="48" rx="24" fill="#D16028"/>
<path opacity="0.4" d="M32 30V20H16V30C16 32.2091 17.7909 34 20 34H28C30.2091 34 32 32.2091 32 30Z" fill="white"/>
<path d="M28.7687 14H19.2313C17.4139 14 15.7796 15.2448 15.1047 17.143L14.3467 19.2749C14.1173 19.9202 13.9587 20.6107 14.126 21.2749C14.5224 22.8478 15.8082 24 17.3333 24C19.1743 24 20.6667 22.3211 20.6667 20.25C20.6667 22.3211 22.1591 24 24 24C25.841 24 27.3333 22.3211 27.3333 20.25C27.3333 22.3211 28.8257 24 30.6667 24C32.1918 24 33.4776 22.8478 33.874 21.2749C34.0413 20.6107 33.8827 19.9202 33.6533 19.2749L32.8953 17.143C32.2204 15.2448 30.5861 14 28.7687 14Z" fill="white"/>
<path fill-rule="evenodd" clip-rule="evenodd" d="M27.6534 28.6318C27.8569 28.9926 27.7293 29.45 27.3685 29.6535C26.1533 30.3386 25.1066 30.748 24.003 30.7501C22.8979 30.7523 21.8492 30.346 20.6293 29.652C20.2692 29.4472 20.1434 28.9893 20.3482 28.6293C20.553 28.2692 21.0109 28.1434 21.371 28.3482C22.5072 28.9946 23.2822 29.2515 24.0001 29.2501C24.7193 29.2487 25.4945 28.988 26.6318 28.3468C26.9926 28.1434 27.45 28.271 27.6534 28.6318Z" fill="white"/>
</svg>
