<svg width="24" height="25" viewBox="0 0 24 25" fill="none" xmlns="http://www.w3.org/2000/svg">
<path fill-rule="evenodd" clip-rule="evenodd" d="M5 6.01001C4.44772 6.01001 4 6.45773 4 7.01001V8.54553C5.19153 9.23432 6 10.5264 6 12.01C6 13.4936 5.19153 14.7857 4 15.4745V17.01C4 17.5623 4.44772 18.01 5 18.01H19C19.5523 18.01 20 17.5623 20 17.01V15.4745C18.8085 14.7857 18 13.4936 18 12.01C18 10.5264 18.8085 9.23432 20 8.54553V7.01001C20 6.45772 19.5523 6.01001 19 6.01001H5ZM5 4.01001C3.34315 4.01001 2 5.35316 2 7.01001V9.01001C2 9.56229 2.47452 9.98929 2.95897 10.2545C3.57933 10.5941 4 11.2529 4 12.01C4 12.7671 3.57933 13.4259 2.95897 13.7655C2.47452 14.0307 2 14.4577 2 15.01V17.01C2 18.6669 3.34315 20.01 5 20.01H19C20.6569 20.01 22 18.6669 22 17.01V15.01C22 14.4577 21.5255 14.0307 21.041 13.7655C20.4207 13.4259 20 12.7671 20 12.01C20 11.2529 20.4207 10.5941 21.041 10.2545C21.5255 9.98929 22 9.56229 22 9.01001V7.01001C22 5.35316 20.6569 4.01001 19 4.01001H5Z" fill="#6F767E"/>
<path fill-rule="evenodd" clip-rule="evenodd" d="M11.9999 11.1986C11.7743 11.4253 11.5137 11.6147 11.2283 11.7592C11.3742 12.0439 11.4738 12.3503 11.5231 12.6663C11.8389 12.6155 12.161 12.6155 12.4768 12.6663C12.5261 12.3503 12.6257 12.0439 12.7715 11.7592C12.4862 11.6147 12.2256 11.4253 11.9999 11.1986ZM12.9445 8.72733C12.6332 7.83177 11.3667 7.83177 11.0554 8.72733L10.8177 9.41102C10.6804 9.80609 10.3117 10.074 9.89354 10.0825L9.16988 10.0972C8.22196 10.1165 7.83058 11.3211 8.58611 11.8939L9.16289 12.3312C9.49619 12.5839 9.63702 13.0173 9.5159 13.4176L9.3063 14.1104C9.03175 15.0179 10.0564 15.7624 10.8346 15.2208L11.4288 14.8074C11.7721 14.5685 12.2278 14.5685 12.5711 14.8074L13.1652 15.2208C13.9435 15.7624 14.9681 15.0179 14.6936 14.1104L14.484 13.4176C14.3629 13.0173 14.5037 12.5839 14.837 12.3312L15.4138 11.8939C16.1693 11.3211 15.7779 10.1165 14.83 10.0972L14.1063 10.0825C13.6882 10.074 13.3195 9.80609 13.1822 9.41102L12.9445 8.72733Z" fill="#6F767E"/>
</svg>
