<svg width="24" height="25" viewBox="0 0 24 25" fill="none" xmlns="http://www.w3.org/2000/svg">
<path fill-rule="evenodd" clip-rule="evenodd" d="M3 2.01001C3.55228 2.01001 4 2.45772 4 3.01001V19.01C4 19.5623 4.44772 20.01 5 20.01H21C21.5523 20.01 22 20.4577 22 21.01C22 21.5623 21.5523 22.01 21 22.01H5C3.34315 22.01 2 20.6669 2 19.01V3.01001C2 2.45772 2.44772 2.01001 3 2.01001Z" fill="#FCFCFC"/>
<path fill-rule="evenodd" clip-rule="evenodd" d="M7 8.01001C7.55228 8.01001 8 8.45772 8 9.01001V17.01C8 17.5623 7.55228 18.01 7 18.01C6.44772 18.01 6 17.5623 6 17.01V9.01001C6 8.45772 6.44772 8.01001 7 8.01001Z" fill="#FCFCFC"/>
<path fill-rule="evenodd" clip-rule="evenodd" d="M11 14.01C11.5523 14.01 12 14.4577 12 15.01V17.01C12 17.5623 11.5523 18.01 11 18.01C10.4477 18.01 10 17.5623 10 17.01V15.01C10 14.4577 10.4477 14.01 11 14.01Z" fill="#FCFCFC"/>
<path fill-rule="evenodd" clip-rule="evenodd" d="M15 4.01001C15.5523 4.01001 16 4.45772 16 5.01001V17.01C16 17.5623 15.5523 18.01 15 18.01C14.4477 18.01 14 17.5623 14 17.01V5.01001C14 4.45772 14.4477 4.01001 15 4.01001Z" fill="#FCFCFC"/>
<path fill-rule="evenodd" clip-rule="evenodd" d="M19 10.01C19.5523 10.01 20 10.4577 20 11.01V17.01C20 17.5623 19.5523 18.01 19 18.01C18.4477 18.01 18 17.5623 18 17.01V11.01C18 10.4577 18.4477 10.01 19 10.01Z" fill="#FCFCFC"/>
</svg>
