<svg width="20" height="20" viewBox="0 0 20 20" fill="none" xmlns="http://www.w3.org/2000/svg">
<path fill-rule="evenodd" clip-rule="evenodd" d="M1.6665 9.99992C1.6665 7.69873 3.53198 5.83325 5.83317 5.83325H8.33317C8.79341 5.83325 9.1665 6.20635 9.1665 6.66659C9.1665 7.12682 8.79341 7.49992 8.33317 7.49992H5.83317C4.45246 7.49992 3.33317 8.61921 3.33317 9.99992C3.33317 11.3806 4.45246 12.4999 5.83317 12.4999H8.33317C8.79341 12.4999 9.1665 12.873 9.1665 13.3333C9.1665 13.7935 8.79341 14.1666 8.33317 14.1666H5.83317C3.53198 14.1666 1.6665 12.3011 1.6665 9.99992Z" fill="#9A9FA5"/>
<path fill-rule="evenodd" clip-rule="evenodd" d="M10.8335 6.66659C10.8335 6.20635 11.2066 5.83325 11.6668 5.83325H14.1668C16.468 5.83325 18.3335 7.69873 18.3335 9.99992C18.3335 12.3011 16.468 14.1666 14.1668 14.1666H11.6668C11.2066 14.1666 10.8335 13.7935 10.8335 13.3333C10.8335 12.873 11.2066 12.4999 11.6668 12.4999H14.1668C15.5475 12.4999 16.6668 11.3806 16.6668 9.99992C16.6668 8.61921 15.5475 7.49992 14.1668 7.49992H11.6668C11.2066 7.49992 10.8335 7.12682 10.8335 6.66659Z" fill="#9A9FA5"/>
<path fill-rule="evenodd" clip-rule="evenodd" d="M6.6665 10.0001C6.6665 9.53984 7.0396 9.16675 7.49984 9.16675H12.4998C12.9601 9.16675 13.3332 9.53984 13.3332 10.0001C13.3332 10.4603 12.9601 10.8334 12.4998 10.8334H7.49984C7.0396 10.8334 6.6665 10.4603 6.6665 10.0001Z" fill="#9A9FA5"/>
</svg>
