<svg width="24" height="24" viewBox="0 0 24 24" fill="none" xmlns="http://www.w3.org/2000/svg">
<path fill-rule="evenodd" clip-rule="evenodd" d="M5.58582 7.00018L9.87871 2.70729C11.0503 1.53572 12.9498 1.53572 14.1213 2.70729L18.4142 7.00018H20.847C21.4555 7.00018 21.923 7.53917 21.8369 8.1416L20.368 18.4244C20.1568 19.9024 18.8911 21.0002 17.3981 21.0002H6.6019C5.10895 21.0002 3.84318 19.9024 3.63205 18.4244L2.16307 8.1416C2.07701 7.53917 2.54447 7.00018 3.15302 7.00018H5.58582ZM11.2929 4.12151C11.6834 3.73098 12.3166 3.73098 12.7071 4.12151L15.5858 7.00019L8.41425 7.00018L11.2929 4.12151ZM4.30603 9.00018L5.61195 18.1416C5.68233 18.6343 6.10425 19.0002 6.6019 19.0002H17.3981C17.8958 19.0002 18.3177 18.6343 18.3881 18.1416L19.694 9.00018H4.30603Z" fill="#FF6A55"/>
<path fill-rule="evenodd" clip-rule="evenodd" d="M8 11C8.55228 11 9 11.4477 9 12V16C9 16.5523 8.55228 17 8 17C7.44772 17 7 16.5523 7 16V12C7 11.4477 7.44772 11 8 11Z" fill="#FF6A55"/>
<path fill-rule="evenodd" clip-rule="evenodd" d="M12 11C12.5523 11 13 11.4477 13 12V16C13 16.5523 12.5523 17 12 17C11.4477 17 11 16.5523 11 16V12C11 11.4477 11.4477 11 12 11Z" fill="#FF6A55"/>
<path fill-rule="evenodd" clip-rule="evenodd" d="M16 11C16.5523 11 17 11.4477 17 12V16C17 16.5523 16.5523 17 16 17C15.4477 17 15 16.5523 15 16V12C15 11.4477 15.4477 11 16 11Z" fill="#FF6A55"/>
</svg>
