<svg width="25" height="24" viewBox="0 0 25 24" fill="none" xmlns="http://www.w3.org/2000/svg">
<path d="M16.5 6.0007C16.8948 6.0007 17.2809 5.88383 17.6094 5.6648L20.5 3.73774V13.0007C20.5 13.553 20.0523 14.0007 19.5 14.0007H18.5V16.0007H19.5C21.1569 16.0007 22.5 14.6576 22.5 13.0007V3.73774C22.5 2.14035 20.7197 1.18756 19.3906 2.07364L16.5 4.0007H9.5C7.84315 4.0007 6.5 5.34385 6.5 7.0007V8.0007H8.5V7.0007C8.5 6.44842 8.94772 6.0007 9.5 6.0007H16.5Z" fill="#1A1D1F"/>
<path fill-rule="evenodd" clip-rule="evenodd" d="M6.25061 18.4383C6.60524 18.1546 7.04586 18 7.5 18H15.5C16.0523 18 16.5 17.5523 16.5 17V11C16.5 10.4477 16.0523 10 15.5 10H5.5C4.94772 10 4.5 10.4477 4.5 11V19.8388L6.25061 18.4383ZM7.5 20H15.5C17.1569 20 18.5 18.6569 18.5 17V11C18.5 9.34315 17.1569 8 15.5 8H5.5C3.84315 8 2.5 9.34315 2.5 11V19.8388C2.5 21.5158 4.43986 22.4481 5.74939 21.4005L7.5 20Z" fill="#1A1D1F"/>
<path fill-rule="evenodd" clip-rule="evenodd" d="M6.5 14C6.5 13.4477 6.94772 13 7.5 13H13.5C14.0523 13 14.5 13.4477 14.5 14C14.5 14.5523 14.0523 15 13.5 15H7.5C6.94772 15 6.5 14.5523 6.5 14Z" fill="#1A1D1F"/>
</svg>
