<svg width="12" height="14" viewBox="0 0 12 14" fill="none" xmlns="http://www.w3.org/2000/svg">
<path d="M11.7071 8.70711C12.0976 8.31658 12.0976 7.68342 11.7071 7.29289C11.3166 6.90237 10.6834 6.90237 10.2929 7.29289L11.7071 8.70711ZM6 13L5.29289 13.7071C5.68342 14.0976 6.31658 14.0976 6.70711 13.7071L6 13ZM1.70711 7.29289C1.31658 6.90237 0.683418 6.90237 0.292894 7.29289C-0.097631 7.68342 -0.097631 8.31658 0.292894 8.70711L1.70711 7.29289ZM10.2929 7.29289L5.29289 12.2929L6.70711 13.7071L11.7071 8.70711L10.2929 7.29289ZM6.70711 12.2929L1.70711 7.29289L0.292894 8.70711L5.29289 13.7071L6.70711 12.2929Z" fill="#FF6A55"/>
<path d="M6 0.999999L6 13" stroke="#FF6A55" stroke-width="2" stroke-linecap="round"/>
</svg>
