<svg width="20" height="20" viewBox="0 0 20 20" fill="none" xmlns="http://www.w3.org/2000/svg">
<path fill-rule="evenodd" clip-rule="evenodd" d="M10.0003 16.667C13.6822 16.667 16.667 13.6822 16.667 10.0003C16.667 6.31843 13.6822 3.33366 10.0003 3.33366C6.31843 3.33366 3.33366 6.31843 3.33366 10.0003C3.33366 13.6822 6.31843 16.667 10.0003 16.667ZM10.0003 18.3337C14.6027 18.3337 18.3337 14.6027 18.3337 10.0003C18.3337 5.39795 14.6027 1.66699 10.0003 1.66699C5.39795 1.66699 1.66699 5.39795 1.66699 10.0003C1.66699 14.6027 5.39795 18.3337 10.0003 18.3337Z" fill="#6F767E"/>
<path fill-rule="evenodd" clip-rule="evenodd" d="M5.84658 10.9029C6.26832 10.7187 6.75958 10.9112 6.94385 11.3329C7.45898 12.5119 8.6346 13.3332 10.0002 13.3332C11.3658 13.3332 12.5414 12.5119 13.0565 11.3329C13.2408 10.9112 13.7321 10.7187 14.1538 10.9029C14.5755 11.0872 14.768 11.5785 14.5838 12.0002C13.813 13.7644 12.0518 14.9999 10.0002 14.9999C7.94857 14.9999 6.18739 13.7644 5.4166 12.0002C5.23233 11.5785 5.42484 11.0872 5.84658 10.9029Z" fill="#6F767E"/>
<path d="M7.49967 7.50033C7.49967 7.96056 7.12658 8.33366 6.66634 8.33366C6.2061 8.33366 5.83301 7.96056 5.83301 7.50033C5.83301 7.04009 6.2061 6.66699 6.66634 6.66699C7.12658 6.66699 7.49967 7.04009 7.49967 7.50033Z" fill="#6F767E"/>
<path d="M14.1667 7.50033C14.1667 7.96056 13.7936 8.33366 13.3333 8.33366C12.8731 8.33366 12.5 7.96056 12.5 7.50033C12.5 7.04009 12.8731 6.66699 13.3333 6.66699C13.7936 6.66699 14.1667 7.04009 14.1667 7.50033Z" fill="#6F767E"/>
</svg>
