<svg width="24" height="25" viewBox="0 0 24 25" fill="none" xmlns="http://www.w3.org/2000/svg">
<path fill-rule="evenodd" clip-rule="evenodd" d="M5 2.01001C3.34315 2.01001 2 3.35316 2 5.01001V19.01C2 20.6669 3.34315 22.01 5 22.01H19C20.6569 22.01 22 20.6669 22 19.01V5.01001C22 3.35316 20.6569 2.01001 19 2.01001H5ZM14 4.01001H10V8.01001H14V4.01001ZM16 4.01001V8.01001H20V5.01001C20 4.45772 19.5523 4.01001 19 4.01001H16ZM14 10.01H10V14.01H14V10.01ZM16 14.01V10.01H20V14.01H16ZM14 16.01H10V20.01H14V16.01ZM16 20.01V16.01H20V19.01C20 19.5623 19.5523 20.01 19 20.01H16ZM5 4.01001H8V8.01001H4V5.01001C4 4.45773 4.44771 4.01001 5 4.01001ZM4 10.01H8V14.01H4V10.01ZM4 16.01H8V20.01H5C4.44772 20.01 4 19.5623 4 19.01V16.01Z" fill="#6F767E"/>
</svg>
