<svg width="20" height="20" viewBox="0 0 20 20" fill="none" xmlns="http://www.w3.org/2000/svg">
<path fill-rule="evenodd" clip-rule="evenodd" d="M8.64376 5.51206C7.42885 4.27386 5.46576 4.27386 4.25085 5.51206C3.02728 6.75909 3.02728 8.78734 4.25085 10.0344L9.40501 15.2873C9.73168 15.6203 10.268 15.6203 10.5947 15.2873L15.7488 10.0344C16.9724 8.78734 16.9724 6.75909 15.7488 5.51206C14.5339 4.27386 12.5708 4.27386 11.3559 5.51206L10.5947 6.28792C10.4379 6.44763 10.2236 6.53761 9.99984 6.53761C9.77608 6.53761 9.56172 6.44763 9.40501 6.28791L8.64376 5.51206ZM9.8334 4.34479L9.99984 4.51442L10.1663 4.34479C12.0345 2.44073 15.0702 2.44073 16.9385 4.34479C18.7981 6.24003 18.7981 9.30639 16.9385 11.2016L11.7843 16.4546C10.8043 17.4534 9.19537 17.4534 8.21537 16.4546L3.0612 11.2016C1.20161 9.30639 1.20161 6.24003 3.0612 4.34479C4.92945 2.44073 7.96515 2.44073 9.8334 4.34479Z" fill="#9A9FA5"/>
</svg>
