<svg width="16" height="16" viewBox="0 0 16 16" fill="none" xmlns="http://www.w3.org/2000/svg">
<path fill-rule="evenodd" clip-rule="evenodd" d="M14.6663 7.99967C14.6663 11.6816 11.6816 14.6663 7.99967 14.6663C4.31778 14.6663 1.33301 11.6816 1.33301 7.99967C1.33301 4.31778 4.31778 1.33301 7.99967 1.33301C11.6816 1.33301 14.6663 4.31778 14.6663 7.99967ZM7.99967 7.33301C8.36786 7.33301 8.66634 7.63148 8.66634 7.99967V11.3336C8.66634 11.7018 8.36786 12.0003 7.99967 12.0003C7.63148 12.0003 7.33301 11.7018 7.33301 11.3336V7.99967C7.33301 7.63148 7.63148 7.33301 7.99967 7.33301ZM7.99967 5.99967C8.36786 5.99967 8.66634 5.7012 8.66634 5.33301C8.66634 4.96482 8.36786 4.66634 7.99967 4.66634C7.63148 4.66634 7.33301 4.96482 7.33301 5.33301C7.33301 5.7012 7.63148 5.99967 7.99967 5.99967Z" fill="#9A9FA5"/>
</svg>
