<svg width="20" height="20" viewBox="0 0 20 20" fill="none" xmlns="http://www.w3.org/2000/svg">
<path d="M11.6847 2.5002H13.7503C14.2106 2.5002 14.5837 2.8733 14.5837 3.33354C14.5837 3.79377 14.2106 4.16687 13.7503 4.16687H12.3176L9.40096 15.8335H10.8337C11.2939 15.8335 11.667 16.2066 11.667 16.6669C11.667 17.1271 11.2939 17.5002 10.8337 17.5002H8.35205C8.34024 17.5005 8.32839 17.5005 8.31651 17.5002H6.25033C5.79009 17.5002 5.41699 17.1271 5.41699 16.6669C5.41699 16.2066 5.79009 15.8335 6.25033 15.8335H7.683L10.5997 4.16687H9.16699C8.70676 4.16687 8.33366 3.79377 8.33366 3.33354C8.33366 2.8733 8.70676 2.5002 9.16699 2.5002H11.648C11.6602 2.49993 11.6724 2.49993 11.6847 2.5002Z" fill="#6F767E"/>
</svg>
