<svg width="119" height="24" viewBox="0 0 119 24" fill="none" xmlns="http://www.w3.org/2000/svg">
<path opacity="0.4" d="M20 18V8H4V18C4 20.2091 5.79086 22 8 22H16C18.2091 22 20 20.2091 20 18Z" fill="#D16028"/>
<path d="M16.7687 2H7.23126C5.4139 2 3.77964 3.24476 3.10469 5.14305L2.34671 7.27487C2.11726 7.92019 1.95866 8.61074 2.12602 9.27488C2.52236 10.8478 3.80824 12 5.33333 12C7.17428 12 8.66667 10.3211 8.66667 8.25C8.66667 10.3211 10.1591 12 12 12C13.841 12 15.3333 10.3211 15.3333 8.25C15.3333 10.3211 16.8257 12 18.6667 12C20.1918 12 21.4776 10.8478 21.874 9.27488C22.0413 8.61074 21.8827 7.92019 21.6533 7.27487L20.8953 5.14305C20.2204 3.24475 18.5861 2 16.7687 2Z" fill="#D16028"/>
<path fill-rule="evenodd" clip-rule="evenodd" d="M15.6534 16.6318C15.8569 16.9926 15.7293 17.45 15.3685 17.6535C14.1533 18.3386 13.1066 18.748 12.003 18.7501C10.8979 18.7523 9.84923 18.346 8.62928 17.652C8.26925 17.4472 8.14342 16.9893 8.34823 16.6293C8.55305 16.2692 9.01095 16.1434 9.37098 16.3482C10.5072 16.9946 11.2822 17.2515 12.0001 17.2501C12.7193 17.2487 13.4945 16.988 14.6318 16.3468C14.9926 16.1434 15.45 16.271 15.6534 16.6318Z" fill="#D16028"/>
<path d="M60.712 18.12C61.2453 18.248 61.512 18.5787 61.512 19.112V21H55.144V10.568C55.144 9.50133 54.92 8.712 54.472 8.2C54.024 7.66667 53.352 7.4 52.456 7.4C52.0933 7.4 51.7093 7.47467 51.304 7.624C50.9627 7.752 50.664 7.944 50.408 8.2C50.1947 8.41333 49.992 8.744 49.8 9.192C49.6507 9.55467 49.576 10.0133 49.576 10.568V17.832L50.504 17.992L50.984 18.088L51.176 18.12C51.7093 18.248 51.976 18.5787 51.976 19.112V21H45.608V10.568C45.608 9.48 45.384 8.68 44.936 8.168C44.488 7.656 43.8373 7.4 42.984 7.4C42.408 7.4 41.8747 7.53867 41.384 7.816C40.936 8.072 40.4773 8.46667 40.008 9V17.832L40.936 17.992L41.416 18.088L41.608 18.12C42.1413 18.248 42.408 18.5787 42.408 19.112V21H33.64V19.112C33.64 18.5787 33.9067 18.248 34.44 18.12L34.632 18.088C34.696 18.088 34.76 18.0773 34.824 18.056C34.9093 18.0347 35.0053 18.0133 35.112 17.992L36.04 17.832V7.752L35.112 7.592C35.0053 7.57067 34.9093 7.54933 34.824 7.528C34.76 7.50667 34.696 7.496 34.632 7.496L34.44 7.464C33.8853 7.336 33.608 7.00533 33.608 6.472V4.584H38.472C38.9627 4.584 39.2933 4.82933 39.464 5.32L39.72 6.536C40.104 6.10933 40.4027 5.81067 40.616 5.64C40.9147 5.40533 41.256 5.18133 41.64 4.968C41.9813 4.776 42.3653 4.616 42.792 4.488C43.1333 4.38133 43.5813 4.328 44.136 4.328C45.2027 4.328 46.056 4.60533 46.696 5.16C47.3787 5.75733 47.88 6.504 48.2 7.4C48.456 6.84533 48.776 6.376 49.16 5.992C49.5013 5.65067 49.9173 5.34133 50.408 5.064C50.7707 4.85067 51.2613 4.66933 51.88 4.52C52.392 4.392 52.9147 4.328 53.448 4.328C54.3653 4.328 55.1653 4.46667 55.848 4.744C56.5947 5.04267 57.192 5.448 57.64 5.96C58.1093 6.49333 58.472 7.144 58.728 7.912C58.984 8.68 59.112 9.56533 59.112 10.568V17.832L60.04 17.992C60.1467 18.0133 60.232 18.0347 60.296 18.056C60.3813 18.0773 60.456 18.088 60.52 18.088L60.712 18.12ZM69.549 4.328C70.5943 4.328 71.5437 4.488 72.397 4.808C73.2077 5.10667 73.9543 5.59733 74.637 6.28C75.2557 6.89867 75.7463 7.67733 76.109 8.616C76.4717 9.576 76.653 10.6213 76.653 11.752C76.653 12.008 76.6317 12.264 76.589 12.52C76.5463 12.7547 76.5037 12.904 76.461 12.968C76.4183 13.0747 76.3223 13.16 76.173 13.224C76.0877 13.2667 75.9383 13.288 75.725 13.288H65.581C65.709 14.9733 66.1677 16.2107 66.957 17C67.7463 17.7893 68.7917 18.184 70.093 18.184C70.7543 18.184 71.2983 18.1093 71.725 17.96C72.1943 17.8107 72.5997 17.64 72.941 17.448C73.0903 17.3627 73.2397 17.288 73.389 17.224C73.5597 17.1387 73.7197 17.0533 73.869 16.968C74.1037 16.8187 74.349 16.744 74.605 16.744C74.7757 16.744 74.925 16.776 75.053 16.84C75.1597 16.8827 75.2557 16.968 75.341 17.096L76.493 18.536C76.0023 19.0907 75.5117 19.528 75.021 19.848C74.445 20.2107 73.8797 20.488 73.325 20.68C72.7917 20.8507 72.1837 20.9893 71.501 21.096C70.9677 21.1813 70.3703 21.224 69.709 21.224C68.5357 21.224 67.4797 21.0427 66.541 20.68C65.6023 20.3173 64.749 19.752 63.981 18.984C63.2557 18.2587 62.6797 17.3413 62.253 16.232C61.8477 15.1653 61.645 13.896 61.645 12.424C61.645 11.3573 61.8263 10.312 62.189 9.288C62.5303 8.328 63.053 7.464 63.757 6.696C64.4183 5.97067 65.2397 5.39467 66.221 4.968C67.2023 4.54133 68.3117 4.328 69.549 4.328ZM69.613 7.144C68.4823 7.144 67.5863 7.47467 66.925 8.136C66.285 8.776 65.869 9.69333 65.677 10.888H73.101C73.101 10.44 73.0263 9.96 72.877 9.448C72.749 9.04267 72.5357 8.648 72.237 8.264C71.9597 7.92267 71.597 7.656 71.149 7.464C70.6583 7.25067 70.1463 7.144 69.613 7.144ZM87.6618 4.296C88.4938 4.296 89.1658 4.47733 89.6778 4.84L89.1658 7.816C89.1444 8.008 89.0804 8.136 88.9738 8.2C88.8458 8.28533 88.6964 8.328 88.5258 8.328C88.3764 8.328 88.1631 8.296 87.8858 8.232C87.5018 8.14667 87.1284 8.104 86.7658 8.104C85.9338 8.104 85.2298 8.328 84.6538 8.776C84.1204 9.18133 83.6298 9.85333 83.1818 10.792V17.832L84.7818 18.12C85.3151 18.248 85.5818 18.5787 85.5818 19.112V21H76.8138V19.112C76.8138 18.5787 77.0804 18.248 77.6138 18.12L79.2138 17.832V7.752L77.6138 7.464C77.0804 7.336 76.8138 7.00533 76.8138 6.472V4.584H81.5498C81.9551 4.584 82.2324 4.65867 82.3818 4.808C82.5311 4.95733 82.6378 5.21333 82.7018 5.576L82.9578 7.56C83.5338 6.51467 84.2164 5.71467 85.0058 5.16C85.8164 4.584 86.7018 4.296 87.6618 4.296ZM103.455 18.536C102.943 19.112 102.474 19.5493 102.047 19.848C101.621 20.1253 101.087 20.4027 100.447 20.68C99.9779 20.8507 99.4126 20.9893 98.7512 21.096C98.2392 21.1813 97.6526 21.224 96.9912 21.224C95.9459 21.224 94.9966 21.0427 94.1432 20.68C93.2472 20.296 92.4686 19.7413 91.8072 19.016C91.1032 18.248 90.5699 17.3627 90.2072 16.36C89.8232 15.2933 89.6312 14.088 89.6312 12.744C89.6312 11.528 89.8019 10.4187 90.1432 9.416C90.5059 8.392 91.0179 7.496 91.6792 6.728C92.3406 5.98133 93.1726 5.39467 94.1752 4.968C95.1992 4.54133 96.3406 4.328 97.5992 4.328C98.9646 4.328 100.693 4.72267 102.783 5.512L102.751 10.568H100.927C100.543 10.568 100.298 10.3653 100.191 9.96L99.9352 7.656C99.1459 7.44267 98.4419 7.336 97.8232 7.336C97.1192 7.336 96.5112 7.464 95.9992 7.72C95.4659 7.976 95.0392 8.328 94.7192 8.776C94.3352 9.30933 94.0686 9.88533 93.9192 10.504C93.7486 11.2293 93.6632 11.976 93.6632 12.744C93.6632 13.6187 93.7592 14.3973 93.9512 15.08C94.1432 15.784 94.4099 16.36 94.7512 16.808C95.1139 17.256 95.5406 17.608 96.0312 17.864C96.5646 18.0987 97.1299 18.216 97.7272 18.216C98.3886 18.216 98.9006 18.1413 99.2632 17.992C99.7326 17.8 100.063 17.6293 100.255 17.48C100.362 17.3947 100.469 17.32 100.575 17.256C100.703 17.1707 100.831 17.0747 100.959 16.968C101.13 16.8187 101.343 16.744 101.599 16.744C101.941 16.744 102.186 16.8613 102.335 17.096L103.455 18.536ZM111.263 4.328C112.308 4.328 113.257 4.488 114.111 4.808C114.921 5.10667 115.668 5.59733 116.351 6.28C116.969 6.89867 117.46 7.67733 117.823 8.616C118.185 9.576 118.367 10.6213 118.367 11.752C118.367 12.008 118.345 12.264 118.303 12.52C118.26 12.7547 118.217 12.904 118.175 12.968C118.132 13.0747 118.036 13.16 117.887 13.224C117.801 13.2667 117.652 13.288 117.439 13.288H107.295C107.423 14.9733 107.881 16.2107 108.671 17C109.46 17.7893 110.505 18.184 111.807 18.184C112.468 18.184 113.012 18.1093 113.439 17.96C113.908 17.8107 114.313 17.64 114.655 17.448C114.804 17.3627 114.953 17.288 115.103 17.224C115.273 17.1387 115.433 17.0533 115.583 16.968C115.817 16.8187 116.063 16.744 116.319 16.744C116.489 16.744 116.639 16.776 116.767 16.84C116.873 16.8827 116.969 16.968 117.055 17.096L118.207 18.536C117.716 19.0907 117.225 19.528 116.735 19.848C116.159 20.2107 115.593 20.488 115.039 20.68C114.505 20.8507 113.897 20.9893 113.215 21.096C112.681 21.1813 112.084 21.224 111.423 21.224C110.249 21.224 109.193 21.0427 108.255 20.68C107.316 20.3173 106.463 19.752 105.695 18.984C104.969 18.2587 104.393 17.3413 103.967 16.232C103.561 15.1653 103.359 13.896 103.359 12.424C103.359 11.3573 103.54 10.312 103.903 9.288C104.244 8.328 104.767 7.464 105.471 6.696C106.132 5.97067 106.953 5.39467 107.935 4.968C108.916 4.54133 110.025 4.328 111.263 4.328ZM111.327 7.144C110.196 7.144 109.3 7.47467 108.639 8.136C107.999 8.776 107.583 9.69333 107.391 10.888H114.815C114.815 10.44 114.74 9.96 114.591 9.448C114.463 9.04267 114.249 8.648 113.951 8.264C113.673 7.92267 113.311 7.656 112.863 7.464C112.372 7.25067 111.86 7.144 111.327 7.144Z" fill="#D16028"/>
</svg>
