<svg width="24" height="24" viewBox="0 0 24 24" fill="none" xmlns="http://www.w3.org/2000/svg">
<path fill-rule="evenodd" clip-rule="evenodd" d="M12.7277 5.65712L9.87846 2.80788C8.70689 1.63631 6.80739 1.63631 5.63582 2.80788L2.80739 5.63631C1.63582 6.80788 1.63582 8.70737 2.80739 9.87895L4.21499 11.2865L4.22161 11.2932L4.22829 11.2998L5.65664 12.7282L3.45653 14.9283C3.31693 15.0679 3.22177 15.2457 3.18305 15.4393L2.12239 20.7426C1.98245 21.4423 2.59937 22.0593 3.29909 21.9193L8.60239 20.8586C8.79598 20.8199 8.97378 20.7248 9.11338 20.5852L11.3135 18.385L14.1211 21.1927C15.2927 22.3642 17.1922 22.3642 18.3637 21.1927L21.1922 18.3642C22.3637 17.1927 22.3637 15.2932 21.1922 14.1216L18.3846 11.314L20.9201 8.77845C22.0917 7.60688 22.0917 5.70739 20.9201 4.53581L19.5059 3.1216C18.3343 1.95003 16.4348 1.95003 15.2632 3.1216L12.7277 5.65712ZM4.2216 7.05052C3.83108 7.44104 3.83108 8.07421 4.2216 8.46473L4.92874 9.17187L6.34293 7.75769C6.73345 7.36717 7.36662 7.36717 7.75714 7.75769C8.14767 8.14821 8.14767 8.78138 7.75714 9.1719L6.34296 10.5861L7.07085 11.314L11.3135 7.07134L8.46424 4.22209C8.07372 3.83157 7.44056 3.83157 7.05003 4.22209L4.2216 7.05052ZM16.9703 12.7282L12.7277 16.9708L13.414 17.6571L14.1211 16.95C14.5116 16.5595 15.1448 16.5595 15.5353 16.95C15.9258 17.3406 15.9258 17.9737 15.5353 18.3642L14.8282 19.0713L15.5353 19.7784C15.9258 20.169 16.559 20.169 16.9495 19.7784L19.778 16.95C20.1685 16.5595 20.1685 15.9263 19.778 15.5358L16.9703 12.7282ZM19.5059 5.95003L18.0917 4.53581C17.7011 4.14529 17.068 4.14529 16.6775 4.53581L15.2632 5.95005L18.0917 8.77847L19.5059 7.36424C19.8964 6.97372 19.8964 6.34055 19.5059 5.95003ZM5.08483 16.1284L13.849 7.36426L16.6774 10.1927L7.91326 18.9569L4.37773 19.664L5.08483 16.1284Z" fill="#FCFCFC"/>
</svg>
