<svg width="24" height="24" viewBox="0 0 24 24" fill="none" xmlns="http://www.w3.org/2000/svg">
<path fill-rule="evenodd" clip-rule="evenodd" d="M10.0544 2.34361C11.1756 1.38807 12.8248 1.38807 13.9461 2.34361L15.2175 3.42715C15.3777 3.56364 15.5768 3.64612 15.7866 3.66286L17.4518 3.79575C18.9204 3.91294 20.0865 5.07907 20.2037 6.5476L20.3366 8.21284C20.3533 8.42261 20.4358 8.62175 20.5723 8.78191L21.6558 10.0534C22.6114 11.1746 22.6114 12.8238 21.6558 13.9451L20.5723 15.2165C20.4358 15.3767 20.3533 15.5759 20.3366 15.7856L20.2037 17.4509C20.0865 18.9194 18.9204 20.0855 17.4518 20.2027L15.7866 20.3356C15.5768 20.3523 15.3777 20.4348 15.2175 20.5713L13.9461 21.6548C12.8248 22.6104 11.1756 22.6104 10.0544 21.6548L8.78289 20.5713C8.62272 20.4348 8.42358 20.3523 8.21382 20.3356L6.54858 20.2027C5.08005 20.0855 3.91392 18.9194 3.79673 17.4509L3.66384 15.7856C3.6471 15.5759 3.56461 15.3767 3.42812 15.2165L2.34459 13.9451C1.38904 12.8238 1.38904 11.1746 2.34459 10.0534L3.42812 8.78191C3.56461 8.62175 3.6471 8.42261 3.66384 8.21284L3.79673 6.5476C3.91392 5.07907 5.08005 3.91294 6.54858 3.79575L8.21382 3.66286C8.42358 3.64612 8.62272 3.56364 8.78289 3.42715L10.0544 2.34361ZM8.50024 9.99921C9.32867 9.99921 10.0002 9.32763 10.0002 8.49921C10.0002 7.67078 9.32867 6.99921 8.50024 6.99921C7.67182 6.99921 7.00024 7.67078 7.00024 8.49921C7.00024 9.32763 7.67182 9.99921 8.50024 9.99921ZM17.0002 15.4992C17.0002 16.3276 16.3287 16.9992 15.5002 16.9992C14.6718 16.9992 14.0002 16.3276 14.0002 15.4992C14.0002 14.6708 14.6718 13.9992 15.5002 13.9992C16.3287 13.9992 17.0002 14.6708 17.0002 15.4992ZM16.1019 8.63942C16.4555 8.21514 16.3981 7.58457 15.9739 7.23101C15.5496 6.87745 14.919 6.93477 14.5655 7.35905L7.8988 15.359C7.54523 15.7833 7.60256 16.4139 8.02683 16.7675C8.45111 17.121 9.08167 17.0637 9.43524 16.6394L16.1019 8.63942Z" fill="#FCFCFC"/>
</svg>
