<svg width="20" height="20" viewBox="0 0 20 20" fill="none" xmlns="http://www.w3.org/2000/svg">
<path fill-rule="evenodd" clip-rule="evenodd" d="M4.16699 17.5003C4.16699 17.0401 4.54009 16.667 5.00033 16.667H15.0003C15.4606 16.667 15.8337 17.0401 15.8337 17.5003C15.8337 17.9606 15.4606 18.3337 15.0003 18.3337H5.00033C4.54009 18.3337 4.16699 17.9606 4.16699 17.5003Z" fill="#6F767E"/>
<path fill-rule="evenodd" clip-rule="evenodd" d="M5.00033 1.66699C5.46056 1.66699 5.83366 2.04009 5.83366 2.50033V9.16699C5.83366 11.4682 7.69914 13.3337 10.0003 13.3337C12.3015 13.3337 14.167 11.4682 14.167 9.16699V2.50033C14.167 2.04009 14.5401 1.66699 15.0003 1.66699C15.4606 1.66699 15.8337 2.04009 15.8337 2.50033V9.16699C15.8337 12.3887 13.222 15.0003 10.0003 15.0003C6.77866 15.0003 4.16699 12.3887 4.16699 9.16699V2.50033C4.16699 2.04009 4.54009 1.66699 5.00033 1.66699Z" fill="#6F767E"/>
</svg>
