<svg width="24" height="25" viewBox="0 0 24 25" fill="none" xmlns="http://www.w3.org/2000/svg">
<path d="M9 7.01001C9 5.90544 9.89543 5.01001 11 5.01001H13C14.1046 5.01001 15 5.90544 15 7.01001V18.01C15 18.5623 14.5523 19.01 14 19.01H10C9.44772 19.01 9 18.5623 9 18.01V7.01001Z" fill="#8E59FF"/>
<path d="M17 13.01C17 12.4577 17.4477 12.01 18 12.01H20C21.1046 12.01 22 12.9054 22 14.01V18.01C22 18.5623 21.5523 19.01 21 19.01H18C17.4477 19.01 17 18.5623 17 18.01V13.01Z" fill="#8E59FF"/>
<path d="M2 12.01C2 10.9054 2.89543 10.01 4 10.01H6C6.55228 10.01 7 10.4577 7 11.01V18.01C7 18.5623 6.55228 19.01 6 19.01H3C2.44772 19.01 2 18.5623 2 18.01V12.01Z" fill="#8E59FF"/>
</svg>
